<?xml version="1.0" standalone="no"?><svg xmlns="http://www.w3.org/2000/svg" viewBox="0 0 1440 320"><path fill="#273036" fill-opacity="1" d="M0,128L14.1,160C28.2,192,56,256,85,256C112.9,256,141,192,169,144C197.6,96,226,64,254,90.7C282.4,117,311,203,339,250.7C367.1,299,395,309,424,293.3C451.8,277,480,235,508,181.3C536.5,128,565,64,593,53.3C621.2,43,649,85,678,90.7C705.9,96,734,64,762,69.3C790.6,75,819,117,847,160C875.3,203,904,245,932,272C960,299,988,309,1016,266.7C1044.7,224,1073,128,1101,80C1129.4,32,1158,32,1186,53.3C1214.1,75,1242,117,1271,133.3C1298.8,149,1327,139,1355,128C1383.5,117,1412,107,1426,101.3L1440,96L1440,320L1425.9,320C1411.8,320,1384,320,1355,320C1327.1,320,1299,320,1271,320C1242.4,320,1214,320,1186,320C1157.6,320,1129,320,1101,320C1072.9,320,1045,320,1016,320C988.2,320,960,320,932,320C903.5,320,875,320,847,320C818.8,320,791,320,762,320C734.1,320,706,320,678,320C649.4,320,621,320,593,320C564.7,320,536,320,508,320C480,320,452,320,424,320C395.3,320,367,320,339,320C310.6,320,282,320,254,320C225.9,320,198,320,169,320C141.2,320,113,320,85,320C56.5,320,28,320,14,320L0,320Z"></path></svg>