<?xml version="1.0" standalone="no"?><svg xmlns="http://www.w3.org/2000/svg" viewBox="0 0 1440 320"><path fill="#273036" fill-opacity="1" d="M0,192L14.1,208C28.2,224,56,256,85,266.7C112.9,277,141,267,169,240C197.6,213,226,171,254,149.3C282.4,128,311,128,339,144C367.1,160,395,192,424,218.7C451.8,245,480,267,508,277.3C536.5,288,565,288,593,256C621.2,224,649,160,678,112C705.9,64,734,32,762,64C790.6,96,819,192,847,245.3C875.3,299,904,309,932,282.7C960,256,988,192,1016,138.7C1044.7,85,1073,43,1101,21.3C1129.4,0,1158,0,1186,42.7C1214.1,85,1242,171,1271,213.3C1298.8,256,1327,256,1355,218.7C1383.5,181,1412,107,1426,69.3L1440,32L1440,0L1425.9,0C1411.8,0,1384,0,1355,0C1327.1,0,1299,0,1271,0C1242.4,0,1214,0,1186,0C1157.6,0,1129,0,1101,0C1072.9,0,1045,0,1016,0C988.2,0,960,0,932,0C903.5,0,875,0,847,0C818.8,0,791,0,762,0C734.1,0,706,0,678,0C649.4,0,621,0,593,0C564.7,0,536,0,508,0C480,0,452,0,424,0C395.3,0,367,0,339,0C310.6,0,282,0,254,0C225.9,0,198,0,169,0C141.2,0,113,0,85,0C56.5,0,28,0,14,0L0,0Z"></path></svg>